HIERARCHY
ROOT Hips
{
 OFFSET 0.000000 0.000000 0.000000
 CHANNELS 6 Xposition Yposition Zposition Yrotation Xrotation Zrotation
 JOINT Chest
 {
  OFFSET 0.000000 9.585900 0.002600
  CHANNELS 3 Yrotation Xrotation Zrotation
  JOINT Chest2
  {
   OFFSET 0.000000 9.601200 -0.005300
   CHANNELS 3 Yrotation Xrotation Zrotation
   JOINT Chest3
   {
    OFFSET 0.000000 9.561800 0.000000
    CHANNELS 3 Yrotation Xrotation Zrotation
    JOINT Chest4
    {
     OFFSET 0.000000 9.552100 0.000000
     CHANNELS 3 Yrotation Xrotation Zrotation
     JOINT Neck
     {
      OFFSET 0.000000 14.453000 0.000000
      CHANNELS 3 Yrotation Xrotation Zrotation
      JOINT Head
      {
       OFFSET 0.000000 8.936500 -0.011300
       CHANNELS 3 Yrotation Xrotation Zrotation
       End Site
       {
        OFFSET 0.000000 17.073600 -0.006000
       }
      }
     }
     JOINT RightCollar
     {
      OFFSET -2.921100 9.558500 0.000000
      CHANNELS 3 Yrotation Xrotation Zrotation
      JOINT RightShoulder
      {
       OFFSET -13.519700 0.000000 0.000000
       CHANNELS 3 Yrotation Xrotation Zrotation
       JOINT RightElbow
       {
        OFFSET 0.000000 -29.696600 0.000000
        CHANNELS 3 Yrotation Xrotation Zrotation
        JOINT RightWrist
        {
         OFFSET 0.000000 -24.004700 0.000000
         CHANNELS 3 Yrotation Xrotation Zrotation
         End Site
         {
          OFFSET 0.000000 -17.728500 0.000000
         }
        }
       }
      }
     }
     JOINT LeftCollar
     {
      OFFSET 2.921100 9.558500 0.000000
      CHANNELS 3 Yrotation Xrotation Zrotation
      JOINT LeftShoulder
      {
       OFFSET 13.519700 0.000000 0.000000
       CHANNELS 3 Yrotation Xrotation Zrotation
       JOINT LeftElbow
       {
        OFFSET 0.000000 -29.696600 0.000000
        CHANNELS 3 Yrotation Xrotation Zrotation
        JOINT LeftWrist
        {
         OFFSET 0.000000 -24.004700 0.000000
         CHANNELS 3 Yrotation Xrotation Zrotation
         End Site
         {
          OFFSET 0.000000 -17.728500 0.000000
         }
        }
       }
      }
     }
    }
   }
  }
 }
 JOINT RightHip
 {
  OFFSET -7.771700 -0.012900 -0.001300
  CHANNELS 3 Yrotation Xrotation Zrotation
  JOINT RightKnee
  {
   OFFSET 0.000000 -40.869800 0.001200
   CHANNELS 3 Yrotation Xrotation Zrotation
   JOINT RightAnkle
   {
    OFFSET 0.000000 -39.717900 0.002100
    CHANNELS 3 Yrotation Xrotation Zrotation
    JOINT RightToe
    {
     OFFSET 0.000000 -4.965400 11.033500
     CHANNELS 3 Yrotation Xrotation Zrotation
     End Site
     {
      OFFSET 0.000000 -1.423100 5.872300
     }
    }
   }
  }
 }
 JOINT LeftHip
 {
  OFFSET 7.771700 -0.012900 -0.001300
  CHANNELS 3 Yrotation Xrotation Zrotation
  JOINT LeftKnee
  {
   OFFSET 0.000000 -40.869800 0.001200
   CHANNELS 3 Yrotation Xrotation Zrotation
   JOINT LeftAnkle
   {
    OFFSET 0.000000 -39.717900 0.002100
    CHANNELS 3 Yrotation Xrotation Zrotation
    JOINT LeftToe
    {
     OFFSET 0.000000 -4.965400 11.033500
     CHANNELS 3 Yrotation Xrotation Zrotation
     End Site
     {
      OFFSET 0.000000 -1.423100 5.872300
     }
    }
   }
  }
 }
}
MOTION
Frames: 12
Frame Time: 0.008333
-168.594137 49.102907 16.821578 175.471457 -33.368709 -3.878162 0.102635 19.435143 2.487528 -0.012396 2.360793 0.260427 -0.016768 3.891117 0.431710 0.145444 16.850450 1.907740 5.362579 16.507731 -1.838228 10.581603 -4.808729 -5.274722 -0.589739 -4.565596 -1.867357 6.122391 -8.849318 -14.562177 -39.479407 -48.432267 90.621783 4.107980 5.787068 -13.303442 -1.752723 -3.672159 2.042387 -5.392639 -1.428927 14.013014 88.443629 -76.994741 -123.251701 3.355929 7.504706 6.909245 -5.148991 -51.365726 -4.293551 -171.985361 83.411862 -159.157750 -29.739153 -3.339545 -4.443275 -0.055012 -12.565860 -0.027054 -12.117553 -53.359272 19.810261 -73.204291 64.738987 -78.571385 30.888865 7.743744 16.581507 0.050617 -0.375495 0.011104
-168.593398 49.104119 16.821429 175.463351 -33.372995 -3.874637 0.108681 19.443412 2.489995 -0.013483 2.367832 0.262650 -0.016400 3.895370 0.432042 0.146667 16.846573 1.905638 5.355085 16.512654 -1.831905 10.577030 -4.815966 -5.272987 -0.587502 -4.566543 -1.867579 6.129999 -8.837057 -14.572413 -39.486823 -48.435201 90.629188 4.094843 5.785158 -13.309146 -1.769891 -3.637890 2.041063 -5.374892 -1.447379 14.001695 88.469830 -77.004975 -123.272597 3.343480 7.505445 6.911357 -5.157197 -51.363381 -4.279076 -172.001417 83.414332 -159.181097 -29.763295 -3.336733 -4.445620 -0.044156 -12.569348 -0.024211 -12.126420 -53.352786 19.814620 -73.205592 64.748438 -78.566620 30.874339 7.742246 16.568187 0.059707 -0.369725 0.009640
-168.593735 49.105084 16.821070 175.455384 -33.376425 -3.863162 0.099247 19.460555 2.487056 -0.007286 2.363903 0.256930 -0.024605 3.911430 0.438701 0.140436 16.860794 1.904671 5.362883 16.487272 -1.844143 10.575010 -4.818016 -5.267676 -0.567334 -4.602174 -1.882284 6.142432 -8.816296 -14.585334 -39.518163 -48.442060 90.653592 4.069454 5.797916 -13.316143 -1.755865 -3.667431 2.026565 -5.368756 -1.448455 13.997133 88.464684 -77.006812 -123.267658 3.338783 7.513711 6.914779 -5.145813 -51.362427 -4.287304 -172.047890 83.415799 -159.228707 -29.775751 -3.335892 -4.449077 -0.044199 -12.571302 -0.020346 -12.141546 -53.348358 19.814440 -73.194732 64.761813 -78.564257 30.879968 7.747051 16.566611 0.053821 -0.376264 0.010598
-168.593212 49.105708 16.821064 175.450376 -33.376351 -3.857002 0.094048 19.467644 2.485625 -0.005668 2.365305 0.258318 -0.025749 3.911939 0.436436 0.134324 16.869545 1.904389 5.370287 16.474910 -1.851241 10.571440 -4.810752 -5.253140 -0.548529 -4.604438 -1.887280 6.153628 -8.811393 -14.598461 -39.519933 -48.433028 90.647514 4.057738 5.799639 -13.320881 -1.748721 -3.674908 2.019116 -5.368464 -1.428995 13.978817 88.542620 -77.023304 -123.338733 3.347906 7.532939 6.927285 -5.148572 -51.363958 -4.285388 -172.078026 83.410180 -159.272069 -29.727587 -3.334949 -4.456973 -0.040055 -12.570758 -0.018603 -12.151282 -53.347629 19.818354 -73.186476 64.766572 -78.563507 30.885020 7.746351 16.572215 0.048709 -0.376062 0.003713
-168.591615 49.105935 16.821638 175.447636 -33.371457 -3.857376 0.092372 19.466601 2.488273 -0.011291 2.370567 0.261171 -0.018955 3.905805 0.432383 0.123895 16.882534 1.905498 5.372463 16.474479 -1.847256 10.574621 -4.808171 -5.250025 -0.535193 -4.605687 -1.887335 6.193899 -8.792157 -14.625796 -39.547207 -48.421831 90.649323 4.049535 5.797169 -13.323762 -1.741415 -3.668566 2.012184 -5.363831 -1.423455 13.962192 88.574455 -77.036132 -123.368351 3.344902 7.551201 6.931880 -5.145729 -51.368000 -4.287203 -172.106476 83.406225 -159.300813 -29.682422 -3.333950 -4.466935 -0.036108 -12.570702 -0.017772 -12.166781 -53.350491 19.829506 -73.178202 64.773712 -78.554854 30.880949 7.744980 16.569030 0.048693 -0.372739 0.004030
-168.589070 49.106670 16.821440 175.439854 -33.371925 -3.859199 0.097205 19.470667 2.495119 -0.026224 2.382148 0.263964 -0.009041 3.902476 0.430915 0.114658 16.883601 1.900725 5.374698 16.486172 -1.837764 10.584377 -4.820292 -5.262798 -0.530242 -4.591634 -1.880269 6.219654 -8.804682 -14.649116 -39.532513 -48.406905 90.630047 4.040518 5.796332 -13.325691 -1.730607 -3.662989 2.003853 -5.362976 -1.418456 13.949879 88.570246 -77.045343 -123.367076 3.348418 7.560361 6.951652 -5.143472 -51.367036 -4.278679 -172.095816 83.407005 -159.285244 -29.681281 -3.333693 -4.468550 -0.029359 -12.572006 -0.020268 -12.172636 -53.348583 19.840704 -73.187937 64.779204 -78.554186 30.864947 7.738800 16.553307 0.059069 -0.367070 0.012201
-168.587498 49.107540 16.820825 175.434950 -33.373544 -3.855812 0.092502 19.476969 2.493369 -0.027898 2.381786 0.262164 -0.009511 3.906800 0.431928 0.104023 16.883947 1.896374 5.387541 16.485967 -1.838027 10.586293 -4.817774 -5.259451 -0.514698 -4.593569 -1.881479 6.231252 -8.801464 -14.660830 -39.478606 -48.381485 90.572322 4.045815 5.773137 -13.321590 -1.713972 -3.654896 2.000640 -5.369360 -1.407681 13.918584 88.532888 -77.071213 -123.325433 3.370618 7.572095 6.962302 -5.134178 -51.365663 -4.281841 -172.106777 83.407393 -159.291030 -29.691372 -3.333334 -4.468168 -0.013467 -12.574168 -0.024097 -12.188101 -53.343306 19.848832 -73.189636 64.780729 -78.555294 30.858321 7.732201 16.546996 0.067522 -0.358947 0.005974
-168.587520 49.108029 16.820468 175.420542 -33.372142 -3.837123 0.085382 19.480115 2.476473 -0.024675 2.381122 0.263132 -0.024300 3.911879 0.430789 0.119011 16.878372 1.893456 5.372247 16.510084 -1.820668 10.607658 -4.817666 -5.267657 -0.510148 -4.591074 -1.880370 6.239308 -8.803535 -14.667324 -39.468644 -48.376001 90.561166 4.037254 5.781334 -13.327325 -1.716762 -3.636540 2.001872 -5.366398 -1.417427 13.904934 88.439530 -77.076976 -123.230629 3.355086 7.554191 6.968136 -5.099692 -51.370191 -4.307839 -172.129095 83.402967 -159.310778 -29.663413 -3.331851 -4.473614 -0.033832 -12.574387 -0.017853 -12.201003 -53.337173 19.843164 -73.165740 64.791964 -78.542665 30.874604 7.722027 16.550536 0.045404 -0.359809 0.003066
-168.586049 49.108462 16.820603 175.414678 -33.368131 -3.831670 0.078718 19.478936 2.471558 -0.025099 2.383296 0.263215 -0.022897 3.912133 0.430272 0.117967 16.875517 1.890843 5.373049 16.523282 -1.812914 10.612521 -4.804459 -5.258290 -0.507124 -4.584510 -1.878903 6.251256 -8.798950 -14.681095 -39.476540 -48.374361 90.564537 4.037667 5.776731 -13.325570 -1.714942 -3.632673 2.000650 -5.373621 -1.411261 13.895276 88.382146 -77.077113 -123.171439 3.358961 7.546865 6.986186 -5.082374 -51.375997 -4.318581 -172.150003 83.401026 -159.325406 -29.666199 -3.327826 -4.466005 -0.033409 -12.578886 -0.024731 -12.208745 -53.338817 19.845430 -73.165437 64.792635 -78.536515 30.867483 7.721839 16.540834 0.050269 -0.357150 0.003299
-168.582779 49.109439 16.820333 175.409412 -33.369158 -3.836677 0.078239 19.483769 2.479263 -0.024995 2.383891 0.261146 -0.026301 3.914271 0.430547 0.113032 16.877995 1.890676 5.379939 16.530034 -1.810555 10.618723 -4.757636 -5.225539 -0.507936 -4.580229 -1.879696 6.267214 -8.800797 -14.699401 -39.456825 -48.363329 90.541617 4.035747 5.770817 -13.326386 -1.704816 -3.639336 1.993226 -5.376477 -1.406598 13.893235 88.260858 -77.068066 -123.076191 3.357306 7.526490 7.031049 -5.089716 -51.375614 -4.296632 -172.093737 83.399185 -159.273819 -29.678899 -3.322157 -4.448689 -0.030616 -12.583535 -0.036057 -12.226337 -53.333776 19.860416 -73.181020 64.787204 -78.537360 30.859899 7.719407 16.516169 0.061384 -0.351208 0.009419
-168.581676 49.110621 16.819356 175.408900 -33.374340 -3.831119 0.074503 19.492859 2.472270 -0.026701 2.382223 0.261222 -0.033438 3.916220 0.430170 0.116240 16.879787 1.888581 5.384491 16.531513 -1.807380 10.623686 -4.733621 -5.212052 -0.505704 -4.583593 -1.878336 6.258234 -8.792585 -14.709653 -39.459581 -48.366002 90.560480 4.025815 5.795259 -13.354006 -1.698036 -3.644942 1.990913 -5.382499 -1.400068 13.890358 88.249298 -77.066062 -123.071953 3.363769 7.526358 7.052674 -5.085546 -51.371832 -4.294870 -172.156969 83.406856 -159.334974 -29.753155 -3.324163 -4.424134 -0.032438 -12.585051 -0.047874 -12.227571 -53.326651 19.851418 -73.182757 64.789672 -78.536111 30.858452 7.713303 16.510284 0.059718 -0.347690 0.009926
-168.580073 49.110772 16.820115 175.393947 -33.370017 -3.822408 0.072199 19.492905 2.465997 -0.020065 2.379814 0.261660 -0.039918 3.918083 0.429736 0.110303 16.879511 1.886779 5.397144 16.535381 -1.807489 10.630186 -4.710386 -5.202829 -0.492795 -4.584993 -1.881509 6.248325 -8.784019 -14.718269 -39.453303 -48.368973 90.567619 4.028512 5.791968 -13.351699 -1.678555 -3.649384 1.983929 -5.410265 -1.373442 13.880893 88.352314 -77.070737 -123.157891 3.378413 7.536179 7.071665 -5.079293 -51.378803 -4.289663 -172.464204 83.418574 -159.642239 -29.782002 -3.325745 -4.431924 -0.050866 -12.583549 -0.040414 -12.221006 -53.330056 19.851297 -73.181513 64.792577 -78.532965 30.863340 7.708124 16.511652 0.050606 -0.346420 0.008705
